<?xml version="1.0" encoding="UTF-8" standalone="no"?>
<!-- Created with Inkscape (http://www.inkscape.org/) -->

<svg
   width="1000.0001"
   height="1000.0001"
   viewBox="0 0 264.58333 264.58333"
   version="1.1"
   id="svg5"
   inkscape:version="1.2.2 (732a01da63, 2022-12-09)"
   sodipodi:docname="present.svg"
   inkscape:export-filename="..\..\..\..\Education\IT Arkitektur KEA\Webteknologi\generative-ai-tool\present.svg"
   inkscape:export-xdpi="96"
   inkscape:export-ydpi="96"
   xmlns:inkscape="http://www.inkscape.org/namespaces/inkscape"
   xmlns:sodipodi="http://sodipodi.sourceforge.net/DTD/sodipodi-0.dtd"
   xmlns="http://www.w3.org/2000/svg"
   xmlns:svg="http://www.w3.org/2000/svg">
  <sodipodi:namedview
     id="namedview7"
     pagecolor="#ffffff"
     bordercolor="#000000"
     borderopacity="0.25"
     inkscape:showpageshadow="2"
     inkscape:pageopacity="0.0"
     inkscape:pagecheckerboard="0"
     inkscape:deskcolor="#d1d1d1"
     inkscape:document-units="mm"
     showgrid="false"
     inkscape:zoom="0.5"
     inkscape:cx="293"
     inkscape:cy="493"
     inkscape:window-width="1920"
     inkscape:window-height="991"
     inkscape:window-x="-9"
     inkscape:window-y="-9"
     inkscape:window-maximized="1"
     inkscape:current-layer="layer1" />
  <defs
     id="defs2" />
  <g
     inkscape:label="Layer 1"
     inkscape:groupmode="layer"
     id="layer1">
    <path
       style="fill:#87916d;fill-opacity:1;stroke:#ffffff;stroke-width:0.529167;stroke-dasharray:none;stroke-opacity:1;paint-order:stroke fill markers"
       d="M 132.27902,109.42073 V 251.96577 L 15.86827,204.09215 V 72.843137 Z"
       id="path236" />
    <path
       style="fill:#828c6a;fill-opacity:1;stroke:#ffffff;stroke-width:0.529167;stroke-dasharray:none;stroke-opacity:1;paint-order:stroke fill markers"
       d="M 132.27902,109.42074 V 251.96577 L 248.68976,204.09215 V 72.843137 Z"
       id="path238" />
    <path
       style="fill:#87916d;fill-opacity:1;stroke:#ffffff;stroke-width:0.529167;stroke-dasharray:none;stroke-opacity:1;paint-order:stroke fill markers"
       d="M 16.018665,72.915933 132.08035,42.177924 248.71506,73.006396 132.29175,109.58392 Z"
       id="path348"
       sodipodi:nodetypes="ccccc" />
    <path
       style="fill:#801e47;fill-opacity:1;stroke:#ffffff;stroke-width:0.529167;stroke-dasharray:none;stroke-opacity:1;paint-order:stroke fill markers"
       d="M 53.24468,219.4497 53.423857,84.696221 167.62457,51.641043 193.49379,58.416968 82.517233,93.904208 81.621342,230.99488 Z"
       id="path2821"
       sodipodi:nodetypes="ccccccc" />
    <path
       style="fill:#801e47;fill-opacity:1;stroke:#ffffff;stroke-width:0.529167;stroke-dasharray:none;stroke-opacity:1;paint-order:stroke fill markers"
       d="M 211.28965,219.4497 211.11047,84.696221 96.909697,51.641043 71.040444,58.416968 182.0171,93.904208 182.91299,230.99488 Z"
       id="path3549"
       sodipodi:nodetypes="ccccccc" />
    <path
       id="path6509"
       style="fill:#801e47;fill-opacity:1;stroke:#ffffff;stroke-width:0.529167;stroke-dasharray:none;stroke-opacity:1;paint-order:stroke fill markers"
       d="m 93.216812,12.617569 c -4.600339,-0.0034 -8.847499,2.174357 -12.298763,7.590965 -17.670624,27.733028 36.568091,47.61227 36.568091,47.61227 l -39.023001,47.121836 16.934719,-4.41746 -0.98177,16.68906 35.341632,-51.29363 40.49518,48.83971 0.2447,-11.53552 17.18044,2.69961 -46.87617,-46.876158 c 0,0 67.00061,1.472503 54.72932,-29.451051 -12.27124,-30.9235571 -58.4107,10.062375 -58.4107,10.062375 0,0 -24.95021,-37.028349 -43.903678,-37.042007 z m 10.876148,20.347129 c 8.14412,0.28452 19.46925,18.547709 19.46925,18.547709 l -4.58059,5.368151 c 0,0 -26.904275,-10.892136 -19.418766,-21.445422 1.286556,-1.813847 2.839786,-2.529491 4.530106,-2.470438 z m 63.56814,7.656999 c 3.05755,0.02798 5.7203,1.568796 7.38314,5.628403 5.93939,14.499982 -28.19543,12.820251 -28.19543,12.820251 l -1.09344,-5.00011 c 0,0 12.73293,-13.532553 21.90573,-13.448544 z" />
  </g>
</svg>
